<?xml version="1.0" standalone="no"?>
<!DOCTYPE svg PUBLIC "-//W3C//DTD SVG 20010904//EN"
 "http://www.w3.org/TR/2001/REC-SVG-20010904/DTD/svg10.dtd">
<svg version="1.0" xmlns="http://www.w3.org/2000/svg"
 width="32.000000pt" height="32.000000pt" viewBox="0 0 32.000000 32.000000"
 preserveAspectRatio="xMidYMid meet">

<g transform="translate(0.000000,32.000000) scale(0.100000,-0.100000)"
fill="#000000" stroke="none">
<path d="M31 232 c-7 -13 -11 -26 -8 -28 8 -8 29 25 25 38 -3 8 -9 4 -17 -10z"/>
<path d="M120 202 c0 -5 7 -9 15 -9 8 0 12 4 9 9 -3 4 -9 8 -15 8 -5 0 -9 -4
-9 -8z"/>
<path d="M213 195 c-6 -7 -8 -18 -3 -26 12 -18 23 -6 18 19 -2 16 -5 17 -15 7z"/>
<path d="M265 190 c6 -29 11 -34 18 -16 3 8 0 20 -8 26 -12 10 -13 8 -10 -10z"/>
<path d="M10 160 c0 -89 100 -165 190 -145 34 7 100 67 100 90 0 23 -19 18
-31 -8 -14 -32 -48 -52 -62 -38 -17 17 -31 13 -17 -4 14 -17 2 -20 -55 -16
-49 4 -129 100 -110 130 3 6 1 11 -4 11 -6 0 -11 -9 -11 -20z"/>
<path d="M126 132 c-2 -4 -1 -14 5 -22 7 -12 9 -10 9 8 0 23 -5 28 -14 14z"/>
<path d="M159 139 c-6 -31 -6 -40 1 -44 4 -3 13 1 19 9 9 10 8 16 -4 26 -8 7
-15 11 -16 9z"/>
<path d="M231 107 c-9 -12 -8 -16 3 -20 19 -7 27 4 17 21 -6 10 -10 10 -20 -1z"/>
</g>
</svg>
